<?xml version="1.0" standalone="no"?>
<!DOCTYPE svg PUBLIC "-//W3C//DTD SVG 20010904//EN"
 "http://www.w3.org/TR/2001/REC-SVG-20010904/DTD/svg10.dtd">
<svg version="1.0" xmlns="http://www.w3.org/2000/svg"
 width="574.000000pt" height="474.000000pt" viewBox="0 0 574.000000 474.000000"
 preserveAspectRatio="xMidYMid meet">

<g transform="translate(0.000000,474.000000) scale(0.100000,-0.100000)"
fill="#000000" stroke="none">
<path d="M1562 3454 c-18 -36 -29 -63 -24 -60 4 2 19 27 32 55 13 28 26 51 29
51 3 0 283 -527 621 -1170 338 -643 616 -1168 618 -1166 4 5 -1231 2355 -1238
2356 -3 0 -20 -30 -38 -66z"/>
<path d="M2782 3511 c8 -25 1234 -2350 1238 -2350 5 -1 1230 2324 1238 2348 3
8 -361 11 -1238 11 -774 0 -1240 -4 -1238 -9z"/>
<path d="M2215 3488 c-22 -11 -41 -22 -43 -23 -2 -2 116 -263 124 -273 6 -8
124 60 134 77 25 48 -10 121 -59 121 -18 0 -19 3 -11 25 10 27 5 51 -18 78
-20 23 -77 21 -127 -5z m115 -8 c25 -25 26 -62 3 -82 -18 -15 -77 -48 -87 -48
-6 0 -56 95 -56 105 0 9 82 45 103 45 9 0 26 -9 37 -20z m60 -110 c10 -5 23
-23 28 -39 9 -25 7 -34 -10 -56 -16 -21 -85 -65 -101 -65 -6 0 -59 121 -55
125 8 9 94 45 106 45 7 0 22 -4 32 -10z"/>
<path d="M2411 3464 c0 -11 3 -14 6 -6 3 7 2 16 -1 19 -3 4 -6 -2 -5 -13z"/>
<path d="M1385 3118 c-76 -145 -142 -271 -147 -280 -5 -10 -7 -18 -4 -18 2 0
63 111 134 248 159 303 164 312 158 312 -2 0 -66 -118 -141 -262z"/>
<path d="M2502 3310 c0 -14 2 -19 5 -12 2 6 2 18 0 25 -3 6 -5 1 -5 -13z"/>
<path d="M2464 3228 l-19 -23 23 19 c21 18 27 26 19 26 -2 0 -12 -10 -23 -22z"/>
<path d="M1199 2768 c-12 -24 -55 -108 -97 -188 -41 -80 -70 -140 -65 -135 14
14 196 365 189 365 -3 0 -15 -19 -27 -42z"/>
<path d="M2611 2704 c65 -140 80 -167 85 -161 7 7 -113 261 -125 265 -6 2 12
-45 40 -104z"/>
<path d="M690 1799 c-182 -347 -330 -632 -328 -634 2 -2 109 197 238 443 347
659 432 822 427 822 -3 0 -154 -284 -337 -631z"/>
<path d="M2908 2193 c7 -3 16 -2 19 1 4 3 -2 6 -13 5 -11 0 -14 -3 -6 -6z"/>
<path d="M2799 2133 l-24 -28 28 24 c25 23 32 31 24 31 -2 0 -14 -12 -28 -27z"/>
<path d="M3100 2135 c13 -14 26 -25 28 -25 3 0 -5 11 -18 25 -13 14 -26 25
-28 25 -3 0 5 -11 18 -25z"/>
<path d="M2877 2118 c-73 -43 -98 -152 -49 -217 46 -62 138 -83 203 -45 48 27
83 100 74 154 -18 105 -136 161 -228 108z m143 -11 c36 -18 70 -74 70 -116 0
-74 -63 -141 -133 -141 -80 0 -137 59 -137 144 0 43 4 53 39 87 34 35 44 39
87 39 27 0 60 -6 74 -13z"/>
<path d="M3031 1984 c0 -11 3 -14 6 -6 3 7 2 16 -1 19 -3 4 -6 -2 -5 -13z"/>
<path d="M2895 1930 c10 -11 20 -20 23 -20 3 0 -3 9 -13 20 -10 11 -20 20 -23
20 -3 0 3 -9 13 -20z"/>
<path d="M2741 2014 c0 -11 3 -14 6 -6 3 7 2 16 -1 19 -3 4 -6 -2 -5 -13z"/>
<path d="M3163 1985 c0 -22 2 -30 4 -17 2 12 2 30 0 40 -3 9 -5 -1 -4 -23z"/>
<path d="M2741 1954 c0 -11 3 -14 6 -6 3 7 2 16 -1 19 -3 4 -6 -2 -5 -13z"/>
<path d="M2790 1846 c0 -2 8 -10 18 -17 15 -13 16 -12 3 4 -13 16 -21 21 -21
13z"/>
<path d="M2943 1773 c9 -2 23 -2 30 0 6 3 -1 5 -18 5 -16 0 -22 -2 -12 -5z"/>
<path d="M3365 1460 c10 -11 20 -20 23 -20 3 0 -3 9 -13 20 -10 11 -20 20 -23
20 -3 0 3 -9 13 -20z"/>
<path d="M3172 1419 c-24 -10 -42 -22 -39 -26 2 -5 30 -65 62 -135 32 -71 62
-128 67 -128 7 0 -3 35 -22 69 -8 15 -3 21 31 36 49 23 89 68 89 101 0 33 -25
81 -49 94 -30 15 -91 11 -139 -11z m129 -2 c43 -33 52 -102 17 -134 -24 -22
-88 -57 -93 -51 -2 2 -19 38 -39 81 l-35 78 42 19 c48 22 85 25 108 7z"/>
<path d="M3281 1334 c0 -11 3 -14 6 -6 3 7 2 16 -1 19 -3 4 -6 -2 -5 -13z"/>
<path d="M3369 1243 l-24 -28 28 24 c25 23 32 31 24 31 -2 0 -14 -12 -28 -27z"/>
<path d="M3217 1059 c7 -7 15 -10 18 -7 3 3 -2 9 -12 12 -14 6 -15 5 -6 -5z"/>
</g>
</svg>
